{"asset":{"version":"2.0","generator":"Blockbench 4.9.4 glTF exporter"},"scenes":[{"nodes":[2],"name":"blockbench_export"}],"scene":0,"nodes":[{"name":"plane","mesh":0},{"name":"plane_selection","mesh":1},{"children":[0,1]}],"bufferViews":[{"buffer":0,"byteOffset":0,"byteLength":72,"target":34962,"byteStride":12},{"buffer":0,"byteOffset":72,"byteLength":72,"target":34962,"byteStride":12},{"buffer":0,"byteOffset":144,"byteLength":48,"target":34962,"byteStride":8},{"buffer":0,"byteOffset":192,"byteLength":12,"target":34963},{"buffer":0,"byteOffset":204,"byteLength":96,"target":34962,"byteStride":12},{"buffer":0,"byteOffset":300,"byteLength":96,"target":34962,"byteStride":12},{"buffer":0,"byteOffset":396,"byteLength":64,"target":34962,"byteStride":8},{"buffer":0,"byteOffset":460,"byteLength":24,"target":34963}],"buffers":[{"byteLength":484,"uri":"data:application/octet-stream;base64,"}],"accessors":[{"bufferView":0,"componentType":5126,"count":6,"max":[0.3125,0.625,5.551115123125783e-17],"min":[-0.3125,0.3125,0],"type":"VEC3"},{"bufferView":1,"componentType":5126,"count":6,"max":[0,1.77635686587003e-16,-1],"min":[0,1.77635686587003e-16,-1],"type":"VEC3"},{"bufferView":2,"componentType":5126,"count":6,"max":[0.625,0.625],"min":[0.3125,0.3125],"type":"VEC2"},{"bufferView":3,"componentType":5123,"count":6,"max":[5],"min":[0],"type":"SCALAR"},{"bufferView":4,"componentType":5126,"count":8,"max":[0.125,0.3125,0],"min":[-0.125,0,-5.551115123125783e-17],"type":"VEC3"},{"bufferView":5,"componentType":5126,"count":8,"max":[0,1.77635686587003e-16,-1],"min":[0,1.77635686587003e-16,-1],"type":"VEC3"},{"bufferView":6,"componentType":5126,"count":8,"max":[0.625,0.3125],"min":[0.3125,0],"type":"VEC2"},{"bufferView":7,"componentType":5123,"count":12,"max":[7],"min":[0],"type":"SCALAR"}],"materials":[{"pbrMetallicRoughness":{"metallicFactor":0,"roughnessFactor":1},"alphaMode":"MASK","alphaCutoff":0.05,"doubleSided":true}],"meshes":[{"primitives":[{"mode":4,"attributes":{"POSITION":0,"NORMAL":1,"TEXCOORD_0":2},"indices":3,"material":0}]},{"primitives":[{"mode":4,"attributes":{"POSITION":4,"NORMAL":5,"TEXCOORD_0":6},"indices":7,"material":0}]}]}